<?xml version="1.0" encoding="UTF-8"?>
<svg width="447.68" height="462.08" version="1.1" viewBox="0 0 447.68 462.08" xmlns="http://www.w3.org/2000/svg" xmlns:cc="http://creativecommons.org/ns#" xmlns:dc="http://purl.org/dc/elements/1.1/" xmlns:rdf="http://www.w3.org/1999/02/22-rdf-syntax-ns#">
 <metadata>
  <rdf:RDF>
   <cc:Work rdf:about="">
    <dc:format>image/svg+xml</dc:format>
    <dc:type rdf:resource="http://purl.org/dc/dcmitype/StillImage"/>
    <dc:title>theme-moon</dc:title>
   </cc:Work>
  </rdf:RDF>
 </metadata>
 <!-- Generator: Sketch 60.1 (88133) - https://sketch.com -->
 <title>theme-moon</title>
 <desc>Created with Sketch.</desc>
 <g fill="#121212">
  <path id="Path" d="m428.83 282.68c0.38663-0.39513 0.77044-0.79119 1.1533-1.1891 7.2847-7.5799 19.928-0.62144 17.35 9.5696-10.196 40.311-31.608 78.366-64.223 109.21-89.998 85.116-232.79 81.875-319.04-7.032-86.235-88.887-85.415-230.85 2.4622-318.73 29.973-29.973 66.244-49.822 104.55-59.541 10.174-2.582 17.306 10.007 9.7356 17.278-0.87228 0.83739-1.738 1.6861-2.597 2.5452-69.896 69.896-68.808 183.89 3.2402 252.41 69.558 66.157 180.22 64.071 247.37-4.5302z"/>
  <path d="m352.69 424.48c-89.359 59.259-211.55 48.207-288.62-31.232-86.238-88.888-85.418-230.85 2.4612-318.73 29.969-29.969 66.237-49.819 104.55-59.541 1.4334-0.36777 2.8007-0.42435 4.0832-0.23575-11.882 8.0156-23.16 17.276-33.675 27.79-87.879 87.879-88.699 229.84-2.4612 318.73 57.033 58.787 138.79 80.127 213.66 63.219z"/>
  <path d="m362.01 192.27 6.7538 13.685c1.0628 2.1538 3.1185 3.6476 5.4958 3.9927l15.102 2.1944c5.9872 0.8704 8.3777 8.2268 4.0455 12.45l-10.929 10.652c-1.72 1.6767-2.5056 4.0926-2.0991 6.4605l2.5801 15.042c1.0222 5.9626-5.2356 10.51-10.591 7.6949l-13.509-7.1018c-2.1265-1.1175-4.6669-1.1175-6.7934 0l-13.509 7.1018c-5.3544 2.8149-11.613-1.7323-10.591-7.6949l2.5801-15.042c0.40644-2.3679-0.37909-4.7839-2.0991-6.4605l-10.929-10.652c-4.3322-4.2228-1.9416-11.58 4.0455-12.45l15.102-2.1944c2.3773-0.34515 4.4321-1.8389 5.4958-3.9927l6.7538-13.685c2.6791-5.4251 10.416-5.4251 13.093 0z"/>
  <path d="m341.68 244.71c0 5.8089 1.0845 11.373 3.0648 16.484l-6.1861 3.2534c-5.3563 2.8102-11.608-1.7351-10.59-7.6949l2.5838-15.041c0.40549-2.367-0.3772-4.7905-2.1029-6.4596l-10.929-10.656c-4.3284-4.2247-1.9426-11.58 4.0455-12.448l15.107-2.1972c2.3764-0.34892 4.4321-1.8389 5.4977-3.9889l6.7519-13.692c2.6781-5.4223 10.411-5.4223 13.089 0l5.5637 11.288c-15.324 7.3554-25.895 23.019-25.895 41.153z"/>
  <path d="m301.19 8.6658 9.8676 19.994c2.2642 4.5868 6.6397 7.7666 11.702 8.5022l22.064 3.2062c12.748 1.8521 17.838 17.517 8.6134 26.509l-15.966 15.563c-3.6626 3.5702-5.3346 8.7143-4.4698 13.757l3.7692 21.976c2.1774 12.696-11.148 22.378-22.55 16.384l-19.735-10.375c-4.5274-2.3802-9.9365-2.3802-14.464 0l-19.735 10.375c-11.402 5.9947-24.728-3.6872-22.55-16.384l3.7692-21.976c0.86473-5.0413-0.80722-10.185-4.4699-13.757l-15.966-15.563c-9.2245-8.9916-4.1341-24.657 8.6134-26.509l22.064-3.2062c5.0621-0.73555 9.4376-3.9144 11.702-8.5022l9.8676-19.994c5.7014-11.552 22.173-11.552 27.873 0z"/>
  <path d="m270.55 101.63c0 8.8643 1.4428 17.398 4.1021 25.367l-14.371 7.5629c-11.401 5.9881-24.726-3.6872-22.547-16.389l3.772-21.972c0.85813-5.0451-0.81099-10.184-4.4699-13.758l-15.975-15.56c-9.2226-8.9963-4.1304-24.66 8.6191-26.508l22.066-3.2062c5.0545-0.73555 9.4395-3.9229 11.703-8.5059l9.8638-19.992c5.7052-11.552 22.17-11.552 27.875 0l9.8639 19.992c0.44321 0.89586 0.97129 1.7446 1.5748 2.5273-25.056 13.504-42.077 39.983-42.077 70.443z"/>
 </g>
</svg>
