<?xml version="1.0" encoding="UTF-8"?>
<svg width="498px" height="498px" viewBox="0 0 498 498" version="1.1" xmlns="http://www.w3.org/2000/svg" xmlns:xlink="http://www.w3.org/1999/xlink">
    <!-- Generator: Sketch 60.1 (88133) - https://sketch.com -->
    <title>theme-sun</title>
    <desc>Created with Sketch.</desc>
    <g id="Page-1" stroke="none" stroke-width="1" fill="none" fill-rule="evenodd">
        <g id="theme-sun" transform="translate(-7.000000, -8.000000)" fill-rule="nonzero">
            <circle id="Oval" fill="#FFFFFF" cx="256" cy="256.988" r="156.988"></circle>
            <g id="Group" transform="translate(7.000000, 7.000000)" fill="#E9E9E9">
                <path d="M373.988,256.988018 C370.130462,256.983591 367.004409,253.857538 367,250 C366.933855,184.857818 314.142182,132.066145 249,132 C245.134007,132 242,128.865993 242,125 C242,121.134007 245.134007,118 249,118 C321.869601,118.077163 380.922837,177.130399 381,250 C380.997882,251.856843 380.257672,253.636676 378.942436,254.94741 C377.6272,256.258145 375.84484,256.992248 373.988,256.988018 L373.988,256.988018 Z" id="Path"></path>
                <g id="Path">
                    <path d="M249,61 C260.404372,61.0134534 271.784124,62.0590518 283,64.124 C283.152,61.944 283.252,59.724 283.252,57.492 C283.248,26.288 249,0.988 249,0.988 C249,0.988 214.748,26.288 214.748,57.492 C214.748,59.74 214.852,61.944 215.004,64.124 C226.218535,62.0590968 237.596955,61.0134978 249,61 L249,61 Z"></path>
                    <path d="M249,438.976 C260.404159,438.961878 271.783731,437.917635 283,435.856 C283.152,438.032 283.252,440.236 283.252,442.484 C283.252,473.684 249.004,498.988 249.004,498.988 C249.004,498.988 214.752,473.692 214.752,442.484 C214.752,440.236 214.856,438.032 215.008,435.856 C226.221617,437.917328 237.598506,438.961571 249,438.976 L249,438.976 Z"></path>
                    <path d="M382.636,116.352 C390.687297,124.426416 397.992967,133.211427 404.464,142.6 C406.116,141.168 407.744,139.68 409.332,138.092 C431.4,116.024 425.068,73.92 425.068,73.92 C425.068,73.92 382.964,67.6 360.896,89.656 C359.296,91.256 357.82,92.856 356.388,94.524 C365.776573,100.995033 374.561584,108.300703 382.636,116.352 L382.636,116.352 Z"></path>
                    <path d="M115.364,383.624 C123.436692,391.677189 132.221881,398.983006 141.612,405.452 C140.18,407.104 138.692,408.732 137.104,410.32 C115.036,432.388 72.932,426.056 72.932,426.056 C72.932,426.056 66.6,383.952 88.668,361.884 C90.268,360.284 91.868,358.808 93.536,357.376 C100.006023,366.765339 107.311766,375.550437 115.364,383.624 L115.364,383.624 Z"></path>
                    <path d="M437.988,250 C437.974053,261.404167 436.929808,272.783755 434.868,284 C437.044,284.152 439.248,284.256 441.496,284.256 C472.696,284.256 498,250.004 498,250.004 C498,250.004 472.7,215.756 441.496,215.756 C439.248,215.756 437.044,215.856 434.868,216.008 C436.929155,227.221641 437.973397,238.598514 437.988,250 L437.988,250 Z"></path>
                    <path d="M60.012,250 C60.0259473,261.404167 61.0701919,272.783755 63.132,284 C60.956,284.152 58.732,284.256 56.504,284.256 C25.3,284.24 -2.13162821e-14,250 -2.13162821e-14,250 C-2.13162821e-14,250 25.3,215.752 56.504,215.752 C58.752,215.752 60.956,215.852 63.132,216.004 C61.0706047,227.218955 60.0263626,238.597178 60.012,250 L60.012,250 Z"></path>
                    <path d="M382.636,383.624 C374.561584,391.675297 365.776573,398.980967 356.388,405.452 C357.82,407.104 359.308,408.732 360.896,410.32 C382.964,432.388 425.068,426.056 425.068,426.056 C425.068,426.056 431.4,383.952 409.332,361.884 C407.732,360.284 406.132,358.808 404.464,357.376 C397.993977,366.765339 390.688234,375.550437 382.636,383.624 L382.636,383.624 Z"></path>
                    <path d="M115.364,116.352 C107.312703,124.426416 100.007033,133.211427 93.536,142.6 C91.884,141.168 90.256,139.68 88.668,138.092 C66.6,116.024 72.932,73.92 72.932,73.92 C72.932,73.92 115.036,67.6 137.104,89.656 C138.704,91.256 140.18,92.856 141.612,94.524 C132.222661,100.994023 123.437563,108.299766 115.364,116.352 L115.364,116.352 Z"></path>
                </g>
            </g>
        </g>
    </g>
</svg>